<svg width="133" height="54" viewBox="0 0 133 54" fill="none" xmlns="http://www.w3.org/2000/svg">
<path d="M12.3681 23.9999L7.85608 16.2239H4.49608V23.9999H0.0800781V1.59989H9.04008C11.1094 1.59989 12.8694 2.32523 14.3201 3.77589C15.7707 5.22656 16.4961 6.97589 16.4961 9.02389C16.4961 10.4106 16.1014 11.7012 15.3121 12.8959C14.5227 14.0692 13.4774 14.9546 12.1761 15.5519L17.1361 23.9999H12.3681ZM4.49608 5.72789V12.3519H9.04008C9.87208 12.3519 10.5867 12.0319 11.1841 11.3919C11.7814 10.7306 12.0801 9.94123 12.0801 9.02389C12.0801 8.10656 11.7814 7.32789 11.1841 6.68789C10.5867 6.04789 9.87208 5.72789 9.04008 5.72789H4.49608Z" fill="#FFE924"/>
<path d="M22.2198 17.6959C22.7745 19.7012 24.2785 20.7039 26.7318 20.7039C28.3105 20.7039 29.5052 20.1706 30.3158 19.1039L33.6438 21.0239C32.0652 23.3066 29.7398 24.4479 26.6678 24.4479C24.0225 24.4479 21.8998 23.6479 20.2998 22.0479C18.6998 20.4479 17.8998 18.4319 17.8998 15.9999C17.8998 13.5892 18.6892 11.5839 20.2678 9.98389C21.8465 8.36256 23.8732 7.55189 26.3478 7.55189C28.6945 7.55189 30.6252 8.36256 32.1398 9.98389C33.6758 11.6052 34.4438 13.6106 34.4438 15.9999C34.4438 16.5332 34.3905 17.0986 34.2838 17.6959H22.2198ZM22.1558 14.4959H30.3158C30.0812 13.4079 29.5905 12.5972 28.8438 12.0639C28.1185 11.5306 27.2865 11.2639 26.3478 11.2639C25.2385 11.2639 24.3212 11.5519 23.5958 12.1279C22.8705 12.6826 22.3905 13.4719 22.1558 14.4959Z" fill="#FFE924"/>
<path d="M40.5086 12.5439C40.5086 12.9706 40.7859 13.3226 41.3406 13.5999C41.9166 13.8559 42.6099 14.0906 43.4206 14.3039C44.2312 14.4959 45.0419 14.7519 45.8526 15.0719C46.6632 15.3706 47.3459 15.8826 47.9006 16.6079C48.4766 17.3332 48.7646 18.2399 48.7646 19.3279C48.7646 20.9706 48.1459 22.2399 46.9086 23.1359C45.6926 24.0106 44.1672 24.4479 42.3326 24.4479C39.0472 24.4479 36.8072 23.1786 35.6126 20.6399L39.1966 18.6239C39.6659 20.0106 40.7112 20.7039 42.3326 20.7039C43.8046 20.7039 44.5406 20.2452 44.5406 19.3279C44.5406 18.9012 44.2526 18.5599 43.6766 18.3039C43.1219 18.0266 42.4392 17.7812 41.6286 17.5679C40.8179 17.3546 40.0072 17.0879 39.1966 16.7679C38.3859 16.4479 37.6926 15.9466 37.1166 15.2639C36.5619 14.5599 36.2846 13.6852 36.2846 12.6399C36.2846 11.0612 36.8606 9.82389 38.0126 8.92789C39.1859 8.01056 40.6366 7.55189 42.3646 7.55189C43.6659 7.55189 44.8499 7.85056 45.9166 8.44789C46.9832 9.02389 47.8259 9.85589 48.4446 10.9439L44.9246 12.8639C44.4126 11.7759 43.5592 11.2319 42.3646 11.2319C41.8312 11.2319 41.3832 11.3492 41.0206 11.5839C40.6792 11.8186 40.5086 12.1386 40.5086 12.5439Z" fill="#FFE924"/>
<path d="M58.8166 24.4479C56.4059 24.4479 54.3899 23.6372 52.7686 22.0159C51.1686 20.3946 50.3686 18.3892 50.3686 15.9999C50.3686 13.6106 51.1686 11.6052 52.7686 9.98389C54.3899 8.36256 56.4059 7.55189 58.8166 7.55189C60.3739 7.55189 61.7926 7.92523 63.0726 8.67189C64.3526 9.41856 65.3232 10.4212 65.9846 11.6799L62.4326 13.7599C62.1126 13.0986 61.6219 12.5759 60.9606 12.1919C60.3206 11.8079 59.5952 11.6159 58.7846 11.6159C57.5472 11.6159 56.5232 12.0319 55.7126 12.8639C54.9019 13.6746 54.4966 14.7199 54.4966 15.9999C54.4966 17.2586 54.9019 18.3039 55.7126 19.1359C56.5232 19.9466 57.5472 20.3519 58.7846 20.3519C59.6166 20.3519 60.3526 20.1706 60.9926 19.8079C61.6539 19.4239 62.1446 18.9012 62.4646 18.2399L66.0486 20.2879C65.3446 21.5466 64.3526 22.5599 63.0726 23.3279C61.7926 24.0746 60.3739 24.4479 58.8166 24.4479Z" fill="#FFE924"/>
<path d="M80.1418 7.99989H84.2698V23.9999H80.1418V22.1119C78.9045 23.6692 77.1658 24.4479 74.9258 24.4479C72.7925 24.4479 70.9578 23.6372 69.4218 22.0159C67.9072 20.3732 67.1498 18.3679 67.1498 15.9999C67.1498 13.6319 67.9072 11.6372 69.4218 10.0159C70.9578 8.37323 72.7925 7.55189 74.9258 7.55189C77.1658 7.55189 78.9045 8.33056 80.1418 9.88789V7.99989ZM72.5258 19.2639C73.3578 20.0959 74.4138 20.5119 75.6938 20.5119C76.9738 20.5119 78.0298 20.0959 78.8618 19.2639C79.7152 18.4106 80.1418 17.3226 80.1418 15.9999C80.1418 14.6772 79.7152 13.5999 78.8618 12.7679C78.0298 11.9146 76.9738 11.4879 75.6938 11.4879C74.4138 11.4879 73.3578 11.9146 72.5258 12.7679C71.6938 13.5999 71.2778 14.6772 71.2778 15.9999C71.2778 17.3226 71.6938 18.4106 72.5258 19.2639Z" fill="#FFE924"/>
<path d="M88.0131 23.9999V0.639893H92.1411V23.9999H88.0131Z" fill="#FFE924"/>
<path d="M99.4073 17.6959C99.962 19.7012 101.466 20.7039 103.919 20.7039C105.498 20.7039 106.693 20.1706 107.503 19.1039L110.831 21.0239C109.253 23.3066 106.927 24.4479 103.855 24.4479C101.21 24.4479 99.0873 23.6479 97.4873 22.0479C95.8873 20.4479 95.0873 18.4319 95.0873 15.9999C95.0873 13.5892 95.8767 11.5839 97.4553 9.98389C99.034 8.36256 101.061 7.55189 103.535 7.55189C105.882 7.55189 107.813 8.36256 109.327 9.98389C110.863 11.6052 111.631 13.6106 111.631 15.9999C111.631 16.5332 111.578 17.0986 111.471 17.6959H99.4073ZM99.3433 14.4959H107.503C107.269 13.4079 106.778 12.5972 106.031 12.0639C105.306 11.5306 104.474 11.2639 103.535 11.2639C102.426 11.2639 101.509 11.5519 100.783 12.1279C100.058 12.6826 99.578 13.4719 99.3433 14.4959Z" fill="#FFE924"/>
<path d="M8.43208 30.5999C10.5867 30.5999 12.4001 31.3252 13.8721 32.7759C15.3441 34.2266 16.0801 36.0079 16.0801 38.1199C16.0801 40.2319 15.3441 42.0132 13.8721 43.4639C12.4001 44.9146 10.5867 45.6399 8.43208 45.6399H4.49608V52.9999H0.0800781V30.5999H8.43208ZM8.43208 41.5119C9.37075 41.5119 10.1494 41.1919 10.7681 40.5519C11.3867 39.8906 11.6961 39.0799 11.6961 38.1199C11.6961 37.1386 11.3867 36.3279 10.7681 35.6879C10.1494 35.0479 9.37075 34.7279 8.43208 34.7279H4.49608V41.5119H8.43208Z" fill="#FFE924"/>
<path d="M29.8606 36.9999H33.9886V52.9999H29.8606V51.1119C28.6232 52.6692 26.8846 53.4479 24.6446 53.4479C22.5112 53.4479 20.6766 52.6372 19.1406 51.0159C17.6259 49.3732 16.8686 47.3679 16.8686 44.9999C16.8686 42.6319 17.6259 40.6372 19.1406 39.0159C20.6766 37.3732 22.5112 36.5519 24.6446 36.5519C26.8846 36.5519 28.6232 37.3306 29.8606 38.8879V36.9999ZM22.2446 48.2639C23.0766 49.0959 24.1326 49.5119 25.4126 49.5119C26.6926 49.5119 27.7486 49.0959 28.5806 48.2639C29.4339 47.4106 29.8606 46.3226 29.8606 44.9999C29.8606 43.6772 29.4339 42.5999 28.5806 41.7679C27.7486 40.9146 26.6926 40.4879 25.4126 40.4879C24.1326 40.4879 23.0766 40.9146 22.2446 41.7679C21.4126 42.5999 20.9966 43.6772 20.9966 44.9999C20.9966 46.3226 21.4126 47.4106 22.2446 48.2639Z" fill="#FFE924"/>
<path d="M41.8598 39.7519C42.2438 38.7279 42.8732 37.9599 43.7478 37.4479C44.6438 36.9359 45.6358 36.6799 46.7238 36.6799V41.2879C45.4652 41.1386 44.3345 41.3946 43.3318 42.0559C42.3505 42.7172 41.8598 43.8159 41.8598 45.3519V52.9999H37.7318V36.9999H41.8598V39.7519Z" fill="#FFE924"/>
<path d="M58.7276 40.9679H55.1116V47.6239C55.1116 48.1786 55.2502 48.5839 55.5276 48.8399C55.8049 49.0959 56.2102 49.2452 56.7436 49.2879C57.2769 49.3092 57.9382 49.2986 58.7276 49.2559V52.9999C55.8902 53.3199 53.8849 53.0532 52.7116 52.1999C51.5596 51.3466 50.9836 49.8212 50.9836 47.6239V40.9679H48.1996V36.9999H50.9836V33.7679L55.1116 32.5199V36.9999H58.7276V40.9679Z" fill="#FFE924"/>
<path d="M70.7841 36.5519C72.5334 36.5519 73.9734 37.1386 75.1041 38.3119C76.2561 39.4852 76.8321 41.1066 76.8321 43.1759V52.9999H72.7041V43.6879C72.7041 42.6212 72.4161 41.8106 71.8401 41.2559C71.2641 40.6799 70.4961 40.3919 69.5361 40.3919C68.4694 40.3919 67.6161 40.7226 66.9761 41.3839C66.3361 42.0452 66.0161 43.0372 66.0161 44.3599V52.9999H61.8881V36.9999H66.0161V38.7919C67.0187 37.2986 68.6081 36.5519 70.7841 36.5519Z" fill="#FFE924"/>
<path d="M83.8448 46.6959C84.3995 48.7012 85.9035 49.7039 88.3568 49.7039C89.9355 49.7039 91.1302 49.1706 91.9408 48.1039L95.2688 50.0239C93.6902 52.3066 91.3648 53.4479 88.2928 53.4479C85.6475 53.4479 83.5248 52.6479 81.9248 51.0479C80.3248 49.4479 79.5248 47.4319 79.5248 44.9999C79.5248 42.5892 80.3142 40.5839 81.8928 38.9839C83.4715 37.3626 85.4982 36.5519 87.9728 36.5519C90.3195 36.5519 92.2502 37.3626 93.7648 38.9839C95.3008 40.6052 96.0688 42.6106 96.0688 44.9999C96.0688 45.5332 96.0155 46.0986 95.9088 46.6959H83.8448ZM83.7808 43.4959H91.9408C91.7062 42.4079 91.2155 41.5972 90.4688 41.0639C89.7435 40.5306 88.9115 40.2639 87.9728 40.2639C86.8635 40.2639 85.9462 40.5519 85.2208 41.1279C84.4955 41.6826 84.0155 42.4719 83.7808 43.4959Z" fill="#FFE924"/>
<path d="M103.079 39.7519C103.463 38.7279 104.092 37.9599 104.967 37.4479C105.863 36.9359 106.855 36.6799 107.943 36.6799V41.2879C106.684 41.1386 105.553 41.3946 104.551 42.0559C103.569 42.7172 103.079 43.8159 103.079 45.3519V52.9999H98.9506V36.9999H103.079V39.7519Z" fill="#FFE924"/>
<path d="M113.665 41.5439C113.665 41.9706 113.942 42.3226 114.497 42.5999C115.073 42.8559 115.766 43.0906 116.577 43.3039C117.387 43.4959 118.198 43.7519 119.009 44.0719C119.819 44.3706 120.502 44.8826 121.057 45.6079C121.633 46.3332 121.921 47.2399 121.921 48.3279C121.921 49.9706 121.302 51.2399 120.065 52.1359C118.849 53.0106 117.323 53.4479 115.489 53.4479C112.203 53.4479 109.963 52.1786 108.769 49.6399L112.353 47.6239C112.822 49.0106 113.867 49.7039 115.489 49.7039C116.961 49.7039 117.697 49.2452 117.697 48.3279C117.697 47.9012 117.409 47.5599 116.833 47.3039C116.278 47.0266 115.595 46.7812 114.785 46.5679C113.974 46.3546 113.163 46.0879 112.353 45.7679C111.542 45.4479 110.849 44.9466 110.273 44.2639C109.718 43.5599 109.441 42.6852 109.441 41.6399C109.441 40.0612 110.017 38.8239 111.169 37.9279C112.342 37.0106 113.793 36.5519 115.521 36.5519C116.822 36.5519 118.006 36.8506 119.073 37.4479C120.139 38.0239 120.982 38.8559 121.601 39.9439L118.081 41.8639C117.569 40.7759 116.715 40.2319 115.521 40.2319C114.987 40.2319 114.539 40.3492 114.177 40.5839C113.835 40.8186 113.665 41.1386 113.665 41.5439Z" fill="#FFE924"/>
<path d="M130.992 52.4959C130.292 53.1959 129.452 53.5459 128.472 53.5459C127.492 53.5459 126.652 53.1959 125.952 52.4959C125.252 51.7959 124.902 50.9559 124.902 49.9759C124.902 48.9959 125.252 48.1559 125.952 47.4559C126.652 46.7559 127.492 46.4059 128.472 46.4059C129.452 46.4059 130.292 46.7559 130.992 47.4559C131.692 48.1559 132.042 48.9959 132.042 49.9759C132.042 50.9559 131.692 51.7959 130.992 52.4959Z" fill="#FFE924"/>
</svg>
